<svg width="160" height="170" viewBox="0 0 160 170" xmlns="http://www.w3.org/2000/svg">
  <circle cx="80" cy="90" fill="#FFC0CB" r="79"/>

  <!-- ears -->
  <path d="m10,53c0,-61.32 10.11,-51.43 50.54,-39.56" fill="#FFC0CB" transform="matrix(1, 0, 0, 1, 0, 0)"/>
  <path d="m150,53c0,-61.32 -10.16,-51.43 -50.81,-39.56" fill="#FFC0CB"/>

  <!-- eyes -->
  <path d="m33.33,68.61q13.33,-22.22 26.67,0" fill="none" stroke="black" stroke-linecap="round" stroke-width="10"/>
  <path d="m99.17,68.96q13.75,-22.92 27.5,0" fill="none" stroke="black" stroke-linecap="round" stroke-width="10" transform="matrix(1, 0, 0, 1, 0, 0)"/>

  <!-- nose -->
  <ellipse cx="81.25" cy="106.25" fill="#FFA0AB" rx="30" ry="20" stroke="black" stroke-width="4"/>
  <path d="m69.85,101.13c3.97,0.08 6.65,2.23 7.36,5.81c0.25,1.24 -0.02,2.37 -0.88,3.31c-1,1.08 -2.54,1 -3.45,-0.16c-0.34,-0.43 -0.61,-0.93 -1.01,-1.29c-1.02,-0.91 -2.47,-0.81 -3.38,0.38c-0.96,1.26 -1.91,2.3 -3.63,1.49c-1.33,-0.63 -1.92,-2.78 -1.31,-4.66c0.97,-2.98 3.12,-4.5 6.29,-4.88z" fill="#000000" opacity="1"/>
  <path d="m90.27,101.24c3.97,0.08 6.65,2.23 7.36,5.81c0.25,1.24 -0.02,2.37 -0.88,3.31c-1,1.08 -2.54,1 -3.45,-0.16c-0.34,-0.43 -0.61,-0.93 -1.01,-1.29c-1.02,-0.91 -2.47,-0.81 -3.38,0.38c-0.96,1.26 -1.91,2.3 -3.63,1.49c-1.33,-0.63 -1.92,-2.78 -1.31,-4.66c0.97,-2.98 3.12,-4.5 6.29,-4.88z" fill="#000000" opacity="1"/>

  <!-- smile -->
  <path d="m58.18,121.77c0,-6.8 5.27,10.09 28.19,5.66c22.9,-4.44 29.46,-14 29.73,-6.99c0.26,7.03 -12.2,28.05 -29.46,28.05c-17.27,0 -28.45,-19.92 -28.45,-26.72z" fill="#000000" stroke="#000000" stroke-width="3"/>
  <path d="m77.19,140.15c0,-3.08 10.3,-7.4 15.97,-7.4c5.68,0 7.44,0.71 7.44,3.79c0,3.08 -6.91,8.98 -12.59,8.98c-5.68,0 -10.82,-2.29 -10.82,-5.36z" fill="#ff909b" stroke="null" stroke-dasharray="null" stroke-width="null"/>
</svg>
