<?xml version="1.0" encoding="iso-8859-1"?>
<!-- Uploaded to: SVG Repo, www.svgrepo.com, Generator: SVG Repo Mixer Tools -->
<svg fill="#ffffff" height="800px" width="800px" version="1.1" id="Layer_1" xmlns="http://www.w3.org/2000/svg" xmlns:xlink="http://www.w3.org/1999/xlink" 
	 viewBox="0 0 512 512" xml:space="preserve">
<g>
	<g>
		<path d="M512,161.253l-0.166-47.079c-0.018-4.89-3.986-8.845-8.876-8.845h-6.639v-9.025c0-4.902-3.974-8.876-8.876-8.876
			s-8.876,3.974-8.876,8.876v9.025h-69.352c-4.902,0-8.876,3.974-8.876,8.876c0,4.902,3.974,8.876,8.876,8.876h84.898l0.103,29.327
			h-79.085c-21.092,0-38.804,15.786-41.187,36.63c-0.122,0.979-0.206,1.988-0.252,3.017l-135.833,0.154
			c-30.461,0-55.245,22.744-55.245,50.7c0,10.45,4.271,20.248,12.043,27.76c-18.079,7.88-31.857,24.259-35.778,44.585
			l-16.296,84.414c-0.8,4.131-4.422,7.133-8.619,7.152l-59.532,0.001c-6.034,0-11.714-2.656-15.583-7.284
			c-3.871-4.633-5.477-10.7-4.405-16.643L75.862,264.13c0.699-3.847,1.055-7.771,1.055-11.66c0-18.128-7.648-34.834-20.027-46.789
			h58.277c4.902,0,8.876-3.974,8.876-8.876s-3.974-8.876-8.876-8.876H29.394l1.168-12.997c2.659-29.561,27.046-51.852,56.723-51.852
			h292.981c4.902,0,8.876-3.974,8.876-8.876c0-4.902-3.974-8.876-8.876-8.876H97.986V96.36c0-4.902-3.974-8.876-8.876-8.876
			s-8.876,3.974-8.876,8.876v9.301c-6.174,0.581-12.206,1.94-17.984,3.994c-6.727-5.22-15.092-8.139-23.679-8.139
			C17.304,101.517,0,118.82,0,140.087c0,11.313,4.929,21.925,13.369,29.194c-0.195,1.346-0.366,2.698-0.489,4.061l-2.036,22.664
			c-0.422,4.702,2.909,8.91,7.581,9.58c23.226,3.328,40.74,23.484,40.74,46.885c0,2.826-0.258,5.681-0.77,8.496L36.974,379.74
			c-2.008,11.134,0.999,22.498,8.254,31.179c7.251,8.677,17.896,13.654,29.205,13.654l94.172-0.001c4.902,0,8.876-3.974,8.876-8.876
			c0-4.902-3.974-8.876-8.876-8.876h-9.639c0.431-1.223,0.798-2.479,1.05-3.784l16.298-84.419
			c3.945-20.449,21.925-35.292,42.754-35.292h42.948c25.407,0,47.762-16.227,55.623-40.373l5.342-16.38
			c0.041-0.111,0.082-0.222,0.12-0.335c3.181-9.546,12.071-16.145,22.223-16.423c0.183-0.007,0.375-0.005,0.565-0.005h36.64
			c4.902,0,8.876-3.974,8.876-8.876v-1.858h111.72c4.902,0,8.876-3.974,8.876-8.876v-28.912h-0.001
			C511.998,161.273,512,161.263,512,161.253z M17.752,140.087c0-11.48,9.34-20.818,20.819-20.818c1.562,0,3.09,0.183,4.573,0.514
			c-2.163,1.587-4.26,3.283-6.262,5.113c-7.368,6.735-13.214,14.786-17.334,23.654C18.383,145.927,17.752,143.053,17.752,140.087z
			 M229.411,265.571h-1.449c-0.548-0.105-1.111-0.166-1.69-0.166c-7.094,0-13.715-2.45-18.647-6.898
			c-4.682-4.223-7.259-9.764-7.259-15.599c0.001-15.918,12.913-29.234,30.022-32.288
			C222.484,227.553,222.086,248.661,229.411,265.571z M305.962,221.35l0.046,0.011l-5.249,16.089
			c-5.477,16.821-21.048,28.122-38.746,28.122h-12.312c-11.034-15.012-10.2-40.908,1.866-55.629l39.596-0.052v0.083
			c6.501,0.043,11.219,1.475,13.289,4.03c2.38,2.941,1.491,7.424,1.482,7.469L305.962,221.35z M494.247,181.32h-99.236
			c4.211-6.742,11.687-11.16,20.12-11.16h79.115V181.32z"/>
	</g>
</g>
<g>
	<g>
		<path d="M151.097,275.5c-1.685-2.071-4.214-3.275-6.885-3.275H94.696c-4.902,0-8.876,3.974-8.876,8.876
			c0,4.902,3.974,8.876,8.876,8.876h38.606l-3.318,15.972H89.807c-4.902,0-8.876,3.974-8.876,8.876c0,4.902,3.974,8.876,8.876,8.876
			h36.487l-3.317,15.967H85.59c-4.902,0-8.876,3.974-8.876,8.876c0,4.902,3.974,8.876,8.876,8.876h33.697l-3.318,15.97H78.677
			c-4.902,0-8.876,3.974-8.876,8.876s3.974,8.876,8.876,8.876h44.513c4.206,0,7.835-2.953,8.69-7.07l21.021-101.166
			C153.445,280.293,152.782,277.572,151.097,275.5z"/>
	</g>
</g>
<g>
	<g>
		<path d="M168.604,187.929h-23.849c-4.902,0-8.876,3.974-8.876,8.876s3.974,8.876,8.876,8.876h23.849
			c4.902,0,8.876-3.974,8.876-8.876S173.506,187.929,168.604,187.929z"/>
	</g>
</g>
</svg>